<svg width="4140" height="318" fill="none" xmlns="http://www.w3.org/2000/svg">
    <path d="M781.889 238.283c-17.132-9.815-30.66-23.328-40.584-40.54-9.924-17.212-14.862-36.249-14.862-57.061 0-20.813 4.938-39.85 14.862-57.062 9.924-17.212 23.452-30.725 40.584-40.54 17.133-9.814 35.796-14.696 56.039-14.696 15.849 0 30.71 2.81 44.633 8.384 13.923 5.622 25.427 13.513 34.413 23.722l-18.317 18.346c-6.814-8.433-15.602-14.894-26.316-19.382-10.714-4.488-22.218-6.756-34.413-6.756-15.01 0-29.13 3.65-42.214 10.948-13.133 7.3-23.65 17.607-31.55 30.923-7.899 13.316-11.849 28.654-11.849 46.113 0 17.458 3.95 32.796 11.849 46.063 7.9 13.316 18.417 23.624 31.55 30.923 13.133 7.299 27.204 10.948 42.214 10.948 15.009 0 26.513-2.268 36.24-6.756 9.726-4.488 18.169-10.456 25.378-17.854 5.184-5.622 9.43-12.378 12.639-20.417 3.209-8.039 5.135-16.719 5.727-26.139H838.57v-23.722h103.387c.988 5.622 1.481 10.801 1.481 15.634 0 13.217-2.123 26.089-6.319 38.616-4.197 12.527-10.912 23.476-20.145 32.895-20.243 21.404-46.608 32.107-79.046 32.107-20.243 0-38.906-4.883-56.039-14.697ZM999.676 242.627c-11.602-6.904-20.687-16.423-27.204-28.555-6.518-12.132-9.776-25.547-9.776-40.392 0-14.844 3.258-28.259 9.776-40.391 6.517-12.133 15.602-21.602 27.204-28.556 11.604-6.904 24.734-10.357 39.404-10.357 14.66 0 27.79 3.453 39.54 10.357 11.71 6.905 20.84 16.423 27.36 28.556 6.51 12.132 9.77 25.547 9.77 40.391 0 14.845-3.26 28.26-9.77 40.392-6.52 12.132-15.65 21.602-27.36 28.555-11.75 6.905-24.88 10.357-39.54 10.357-14.67 0-27.75-3.452-39.404-10.357Zm64.634-19.678c7.8-4.586 14.07-11.146 18.81-19.678 4.69-8.482 7.06-18.346 7.06-29.591 0-11.244-2.37-21.059-7.06-29.591-4.69-8.482-10.96-15.042-18.81-19.678-7.81-4.586-16.25-6.904-25.23-6.904-8.99 0-17.14 2.318-24.94 6.904-7.8 4.587-14.07 11.146-18.809 19.678-4.69 8.483-7.06 18.347-7.06 29.591 0 11.245 2.37 21.059 7.06 29.591 4.689 8.532 10.959 15.092 18.809 19.678 7.8 4.587 16.15 6.905 24.94 6.905 8.78 0 17.42-2.269 25.23-6.905ZM1170.16 242.627c-11.61-6.904-20.69-16.423-27.21-28.555-6.52-12.132-9.77-25.547-9.77-40.392 0-14.844 3.25-28.259 9.77-40.391 6.52-12.133 15.6-21.602 27.21-28.556 11.6-6.904 24.73-10.357 39.4-10.357 14.66 0 27.79 3.453 39.54 10.357 11.7 6.905 20.84 16.423 27.36 28.556 6.51 12.132 9.77 25.547 9.77 40.391 0 14.845-3.26 28.26-9.77 40.392-6.52 12.132-15.66 21.602-27.36 28.555-11.75 6.905-24.88 10.357-39.54 10.357-14.67 0-27.75-3.452-39.4-10.357Zm64.63-19.678c7.8-4.586 14.07-11.146 18.81-19.678 4.69-8.482 7.06-18.346 7.06-29.591 0-11.244-2.37-21.059-7.06-29.591-4.69-8.482-10.96-15.042-18.81-19.678-7.81-4.586-16.25-6.904-25.23-6.904-8.99 0-17.14 2.318-24.94 6.904-7.8 4.587-14.07 11.146-18.81 19.678-4.69 8.483-7.06 18.347-7.06 29.591 0 11.245 2.37 21.059 7.06 29.591 4.69 8.532 10.96 15.092 18.81 19.678 7.8 4.587 16.15 6.905 24.94 6.905 8.78 0 17.42-2.269 25.23-6.905ZM1333.39 304.917c-11.41-8.631-19.16-18.593-23.16-30.035l23.75-9.913c3.01 8.778 8.34 15.979 16.09 21.453 7.71 5.524 16.89 8.236 27.51 8.236 15.84 0 27.99-4.586 36.53-13.76 8.49-9.173 12.79-21.995 12.79-38.468V226.5h-1.19c-4.78 7.595-11.7 13.908-20.73 18.939-9.04 4.981-19.26 7.496-30.66 7.496-12.64 0-24.34-3.403-35.16-10.258-10.81-6.855-19.45-16.275-25.87-28.358-6.42-12.083-9.63-25.597-9.63-40.688 0-15.091 3.21-28.654 9.63-40.688 6.42-12.083 15.01-21.502 25.87-28.308 10.82-6.856 22.57-10.259 35.16-10.259 11.4 0 21.62 2.516 30.66 7.497 9.03 5.03 15.95 11.343 20.73 18.938h1.19V99.21h24.34v142.924c0 16.423-3.21 30.331-9.63 41.724-6.42 11.392-15.16 19.924-26.31 25.547-11.11 5.622-23.7 8.384-37.72 8.384-18.03 0-32.79-4.291-44.19-12.922v.05Zm69.12-81.869c7.4-4.537 13.38-10.998 17.87-19.481 4.5-8.433 6.77-18.395 6.77-29.887 0-11.491-2.27-21.502-6.77-30.034-4.49-8.582-10.47-15.043-17.87-19.481-7.41-4.439-15.55-6.658-24.34-6.658s-16.94 2.268-24.34 6.806c-7.41 4.537-13.38 10.998-17.88 19.48-4.49 8.434-6.76 18.446-6.76 29.887 0 11.442 2.27 21.454 6.76 29.887 4.5 8.434 10.47 14.944 17.88 19.481 7.4 4.537 15.5 6.806 24.34 6.806s16.93-2.269 24.34-6.806ZM1481.85 33.166h25.58v215.028h-25.58V33.166ZM1567.12 242.757c-11.3-6.806-20.19-16.226-26.61-28.21-6.42-12.034-9.63-25.597-9.63-40.836 0-14.401 3.01-27.668 9.04-39.8 6.02-12.132 14.56-21.7 25.72-28.851 11.11-7.102 23.9-10.653 38.31-10.653 14.42 0 27.11 3.255 38.02 9.765 10.91 6.51 19.31 15.683 25.08 27.47 5.83 11.837 8.74 25.449 8.74 40.836 0 2.811-.2 4.833-.59 6.017h-118.45c.4 11.195 3.11 20.664 8.1 28.358 4.99 7.694 11.26 13.464 18.81 17.261 7.51 3.798 15.26 5.721 23.31 5.721 18.81 0 33.37-9.173 43.59-27.618l22.57 10.801c-6.42 11.984-15.31 21.65-26.62 28.999-11.3 7.299-24.88 10.949-40.73 10.949-14.42 0-27.3-3.403-38.61-10.209h-.05Zm81.62-85.568c-.4-6.017-2.13-12.033-5.14-18.001-3.01-6.017-7.85-11.097-14.56-15.338-6.72-4.192-15.31-6.313-25.73-6.313-11.21 0-20.93 3.601-29.18 10.801-8.19 7.201-13.43 16.818-15.65 28.851H1648.74ZM1773.45 33.166h65.22c22.02 0 41.28 4.537 57.72 13.66 16.44 9.125 29.08 21.75 37.87 37.976 8.83 16.226 13.23 34.819 13.23 55.878 0 21.058-4.4 39.602-13.23 55.828-8.84 16.226-21.43 28.9-37.87 37.975-16.44 9.124-35.7 13.661-57.72 13.661h-65.22V33.166Zm65.22 190.664c25.43 0 45.57-7.299 60.43-21.946 14.81-14.599 22.27-35.016 22.27-61.254 0-26.237-7.41-46.655-22.27-61.253-14.81-14.598-34.95-21.947-60.43-21.947h-39.7v166.4h39.7ZM2005.4 242.757c-11.3-6.806-20.19-16.226-26.61-28.21-6.42-12.034-9.63-25.597-9.63-40.836 0-14.401 3.01-27.668 9.04-39.8 6.02-12.132 14.56-21.7 25.72-28.851 11.11-7.102 23.9-10.653 38.31-10.653 14.42 0 27.11 3.255 38.02 9.765 10.91 6.51 19.31 15.683 25.08 27.47 5.83 11.837 8.74 25.449 8.74 40.836 0 2.811-.2 4.833-.59 6.017h-118.45c.4 11.195 3.11 20.664 8.1 28.358 4.99 7.694 11.26 13.464 18.81 17.261 7.51 3.798 15.26 5.721 23.31 5.721 18.81 0 33.37-9.173 43.59-27.618l22.57 10.801c-6.42 11.984-15.31 21.65-26.62 28.999-11.3 7.299-24.88 10.949-40.73 10.949-14.42 0-27.3-3.403-38.61-10.209h-.05Zm81.62-85.568c-.4-6.017-2.13-12.033-5.14-18.001-3.01-6.017-7.85-11.097-14.56-15.338-6.72-4.192-15.31-6.313-25.73-6.313-11.21 0-20.93 3.601-29.18 10.801-8.19 7.201-13.43 16.818-15.65 28.851H2087.02ZM2120.05 99.25h27.65l45.67 118.907h.59l46.32-118.907h27.05l-61.02 148.941h-25.87L2120 99.25h.05ZM2314.13 242.757c-11.3-6.806-20.19-16.226-26.61-28.21-6.42-12.034-9.63-25.597-9.63-40.836 0-14.401 3.01-27.668 9.04-39.8 6.02-12.132 14.56-21.7 25.72-28.851 11.11-7.102 23.9-10.653 38.31-10.653 14.42 0 27.11 3.255 38.02 9.765 10.91 6.51 19.31 15.683 25.08 27.47 5.83 11.837 8.74 25.449 8.74 40.836 0 2.811-.2 4.833-.59 6.017h-118.45c.4 11.195 3.11 20.664 8.1 28.358 4.99 7.694 11.26 13.464 18.81 17.261 7.51 3.798 15.26 5.721 23.31 5.721 18.81 0 33.37-9.173 43.59-27.618l22.57 10.801c-6.42 11.984-15.31 21.65-26.62 28.999-11.3 7.299-24.88 10.949-40.73 10.949-14.42 0-27.3-3.403-38.61-10.209h-.05Zm81.62-85.568c-.4-6.017-2.13-12.033-5.14-18.001-3.01-6.017-7.85-11.097-14.56-15.338-6.72-4.192-15.31-6.313-25.73-6.313-11.21 0-20.93 3.601-29.18 10.801-8.24 7.201-13.43 16.818-15.65 28.851H2395.75ZM2448.62 33.166h25.58v215.028h-25.58V33.166ZM2535.52 242.627c-11.6-6.904-20.68-16.423-27.2-28.555-6.52-12.132-9.78-25.547-9.78-40.392 0-14.844 3.26-28.259 9.78-40.391 6.52-12.133 15.6-21.602 27.2-28.556 11.61-6.904 24.74-10.357 39.4-10.357 14.67 0 27.8 3.453 39.55 10.357 11.7 6.905 20.84 16.423 27.35 28.556 6.52 12.132 9.78 25.547 9.78 40.391 0 14.845-3.26 28.26-9.78 40.392-6.51 12.132-15.65 21.602-27.35 28.555-11.75 6.905-24.88 10.357-39.55 10.357-14.66 0-27.75-3.452-39.4-10.357Zm64.63-19.678c7.8-4.586 14.07-11.146 18.81-19.678 4.69-8.482 7.06-18.346 7.06-29.591 0-11.244-2.37-21.059-7.06-29.591-4.69-8.482-10.96-15.042-18.81-19.678-7.8-4.586-16.24-6.904-25.23-6.904-8.98 0-17.13 2.318-24.93 6.904-7.8 4.587-14.07 11.146-18.81 19.678-4.69 8.483-7.06 18.347-7.06 29.591 0 11.245 2.37 21.059 7.06 29.591 4.69 8.532 10.96 15.092 18.81 19.678 7.8 4.587 16.14 6.905 24.93 6.905s17.43-2.269 25.23-6.905ZM2674.7 99.252h24.35V121.2h1.18c4.79-7.595 11.7-13.957 20.74-19.086 9.03-5.13 19.45-7.645 31.25-7.645 12.84 0 24.64 3.453 35.45 10.357 10.81 6.905 19.45 16.374 25.87 28.358 6.42 11.985 9.63 25.498 9.63 40.54 0 15.042-3.21 28.506-9.63 40.54-6.42 11.984-15.06 21.453-25.87 28.358-10.81 6.904-22.66 10.356-35.45 10.356-11.85 0-22.32-2.564-31.4-7.644-9.14-5.129-16-11.54-20.59-19.382h-1.18l1.18 20.714v66.382h-25.57V99.252h.04Zm98.16 123.74c7.5-4.587 13.53-11.146 18.02-19.678 4.49-8.483 6.76-18.347 6.76-29.591 0-11.245-2.27-21.059-6.76-29.591-4.49-8.483-10.52-15.042-18.02-19.678-7.51-4.587-15.7-6.905-24.49-6.905s-16.99 2.269-24.49 6.757c-7.5 4.488-13.53 10.998-18.02 19.53-4.49 8.532-6.77 18.445-6.77 29.887s2.28 21.108 6.77 29.739 10.52 15.141 18.02 19.678c7.5 4.488 15.7 6.756 24.49 6.756s16.98-2.268 24.49-6.904ZM2882.86 242.757c-11.3-6.806-20.19-16.226-26.61-28.21-6.42-12.034-9.63-25.597-9.63-40.836 0-14.401 3.01-27.668 9.04-39.8 6.02-12.132 14.56-21.7 25.72-28.851 11.11-7.102 23.9-10.653 38.31-10.653 14.42 0 27.11 3.255 38.02 9.765 10.91 6.51 19.31 15.683 25.08 27.47 5.83 11.837 8.74 25.449 8.74 40.836 0 2.811-.19 4.833-.59 6.017h-118.45c.4 11.195 3.11 20.664 8.1 28.358 4.99 7.694 11.26 13.464 18.81 17.261 7.51 3.798 15.26 5.721 23.31 5.721 18.81 0 33.37-9.173 43.59-27.618l22.57 10.801c-6.42 11.984-15.31 21.65-26.62 28.999-11.3 7.299-24.88 10.949-40.73 10.949-14.42 0-27.3-3.403-38.61-10.209h-.05Zm81.62-85.568c-.4-6.017-2.13-12.033-5.14-18.001-3.01-6.017-7.85-11.097-14.56-15.338-6.72-4.192-15.31-6.313-25.73-6.313-11.2 0-20.93 3.601-29.18 10.801-8.19 7.201-13.43 16.818-15.65 28.851H2964.48ZM3017.4 99.252h24.35v24.314h1.18c2.81-8.187 8.59-15.091 17.28-20.714 8.74-5.622 17.38-8.384 26.02-8.384 6.22 0 12 .987 17.43 3.009v27.322c-5.43-3.008-12.44-4.488-21.03-4.488-7.01 0-13.58 2.071-19.7 6.165-6.13 4.143-10.96 9.568-14.57 16.423-3.6 6.806-5.43 14.253-5.43 22.292v83.052h-25.58V99.253h.05ZM3235.19 238.283c-17.13-9.815-30.66-23.328-40.59-40.54-9.92-17.212-14.86-36.249-14.86-57.061 0-20.813 4.94-39.85 14.86-57.062 9.93-17.212 23.46-30.725 40.59-40.54 17.13-9.814 35.79-14.696 56.04-14.696 15.85 0 30.71 2.81 44.63 8.384 13.92 5.622 25.43 13.513 34.41 23.722l-18.31 18.346c-6.82-8.433-15.61-14.894-26.32-19.382-10.71-4.488-22.22-6.756-34.41-6.756-15.01 0-29.13 3.65-42.22 10.948-13.13 7.3-23.65 17.607-31.55 30.923-7.9 13.316-11.85 28.654-11.85 46.113 0 17.458 3.95 32.796 11.85 46.063 7.9 13.316 18.42 23.624 31.55 30.923 13.14 7.299 27.21 10.948 42.22 10.948 15.01 0 26.51-2.268 36.24-6.756 9.72-4.488 18.17-10.456 25.37-17.854 5.19-5.622 9.43-12.378 12.64-20.417 3.21-7.99 5.14-16.719 5.73-26.139h-79.34v-23.722h103.39c.98 5.622 1.48 10.801 1.48 15.634 0 13.217-2.13 26.089-6.32 38.616-4.2 12.527-10.91 23.476-20.15 32.895-20.24 21.404-46.6 32.107-79.04 32.107-20.25 0-38.91-4.883-56.04-14.697ZM3425.92 99.252h24.34v24.314h1.19c2.81-8.187 8.59-15.091 17.28-20.714 8.74-5.622 17.38-8.384 26.02-8.384 6.22 0 12 .987 17.43 3.009v27.322c-5.43-3.008-12.45-4.488-21.04-4.488-7.01 0-13.57 2.071-19.7 6.165-6.12 4.143-10.96 9.568-14.56 16.423-3.61 6.806-5.43 14.253-5.43 22.292v83.052h-25.58V99.253h.05ZM3552.47 242.627c-11.61-6.904-20.69-16.423-27.21-28.555-6.52-12.132-9.78-25.547-9.78-40.392 0-14.844 3.26-28.259 9.78-40.391 6.52-12.133 15.6-21.602 27.21-28.556 11.6-6.904 24.73-10.357 39.4-10.357 14.66 0 27.79 3.453 39.54 10.357 11.7 6.905 20.84 16.423 27.36 28.556 6.51 12.132 9.77 25.547 9.77 40.391 0 14.845-3.26 28.26-9.77 40.392-6.52 12.132-15.66 21.602-27.36 28.555-11.75 6.905-24.88 10.357-39.54 10.357-14.67 0-27.75-3.452-39.4-10.357Zm64.62-19.678c7.81-4.586 14.08-11.146 18.82-19.678 4.69-8.482 7.06-18.346 7.06-29.591 0-11.244-2.37-21.059-7.06-29.591-4.69-8.482-10.97-15.042-18.82-19.678-7.8-4.586-16.24-6.904-25.22-6.904-8.99 0-17.14 2.318-24.94 6.904-7.8 4.587-14.07 11.146-18.81 19.678-4.69 8.483-7.06 18.347-7.06 29.591 0 11.245 2.37 21.059 7.06 29.591 4.69 8.532 10.96 15.092 18.81 19.678 7.8 4.587 16.15 6.905 24.94 6.905 8.78 0 17.42-2.269 25.22-6.905ZM3705.97 237.045c-9.53-10.603-14.27-25.3-14.27-44.139V99.25h25.57v89.513c0 27.421 12.35 41.131 36.98 41.131 8.2 0 15.61-2.268 22.07-6.904 6.52-4.587 11.51-10.604 15.06-18.001 3.51-7.398 5.28-15.19 5.28-23.427V99.25h25.23v148.941h-24.04v-22.242h-1.19c-4.39 7.595-11.05 14.006-19.99 19.234-8.94 5.228-18.47 7.792-28.74 7.792-18.41 0-32.43-5.277-41.91-15.93h-.05ZM3855.21 99.252h24.35V121.2h1.18c4.79-7.595 11.7-13.957 20.74-19.086 9.03-5.13 19.45-7.645 31.25-7.645 12.84 0 24.64 3.453 35.45 10.357 10.81 6.905 19.45 16.374 25.87 28.358 6.42 11.985 9.63 25.498 9.63 40.54 0 15.042-3.21 28.506-9.63 40.54-6.42 11.984-15.06 21.453-25.87 28.358-10.81 6.904-22.66 10.356-35.45 10.356-11.85 0-22.32-2.564-31.4-7.644-9.13-5.129-16-11.54-20.59-19.382h-1.18l1.18 20.714v66.382h-25.57V99.252h.04Zm98.16 123.74c7.5-4.587 13.53-11.146 18.02-19.678 4.49-8.483 6.76-18.347 6.76-29.591 0-11.245-2.27-21.059-6.76-29.591-4.49-8.483-10.52-15.042-18.02-19.678-7.51-4.587-15.7-6.905-24.49-6.905s-16.98 2.269-24.49 6.757c-7.5 4.488-13.53 10.998-18.02 19.53-4.49 8.532-6.76 18.445-6.76 29.887s2.27 21.108 6.76 29.739 10.52 15.141 18.02 19.678c7.51 4.488 15.7 6.756 24.49 6.756s16.98-2.268 24.49-6.904ZM4040.36 240.951c-11.01-7.99-18.76-17.903-23.15-29.739l22.56-9.913c4 9.419 9.68 16.62 16.99 21.601 7.3 4.981 15.3 7.497 23.89 7.497 9.63 0 17.58-2.121 23.9-6.313s9.48-9.321 9.48-15.289c0-5.967-2.37-10.603-7.06-14.401-4.69-3.797-12.79-7.102-24.19-9.913l-20.44-5.129c-11.21-2.614-20.79-7.299-28.69-14.105-7.9-6.806-11.85-15.782-11.85-27.027 0-9.222 2.67-17.113 7.95-23.722 5.28-6.608 12.39-11.589 21.18-14.992 8.84-3.403 18.42-5.13 28.88-5.13 12.84 0 24.49 2.96 35.01 8.878s17.97 14.253 22.41 25.054l-22.56 9.617c-3.21-7.201-8.05-12.527-14.56-15.93-6.52-3.403-13.78-5.08-21.78-5.08-8 0-14.86 1.874-21.18 5.721-6.32 3.797-9.48 8.68-9.48 14.697 0 5.228 2.08 9.321 6.17 12.329 4.1 3.009 10.67 5.721 19.7 8.089l22.27 5.375c14.81 3.798 25.92 9.469 33.23 16.966 7.31 7.496 10.96 16.472 10.96 26.878 0 8.631-2.52 16.423-7.51 23.427-4.98 7.003-11.99 12.526-21.03 16.521-9.03 3.995-19.25 6.017-30.66 6.017-15.85 0-29.28-3.995-40.29-11.984h-.15Z" fill="#666C73"/>
    <path d="m141.224 143.926 96.36-55.573c22.658-13.067 30.458-42.061 17.327-64.694C241.829 1.025 212.852-6.716 190.194 6.35L23.687 102.357l117.537 41.569Z" fill="#FF281F"/>
    <path d="M213.836 286.72c16.389 0 32.334-8.482 41.121-23.669 13.082-22.634 5.331-51.628-17.327-64.695L71.123 102.35c-22.659-13.067-51.685-5.326-64.767 17.357-13.081 22.633-5.331 51.627 17.377 64.694l166.457 96.007c7.454 4.29 15.6 6.361 23.646 6.361v-.049Z" fill="#0080FC"/>
    <path d="M379.457 286.714c8.046 0 16.192-2.022 23.646-6.361l166.458-96.007-116.057-42.455-97.841 56.41c-22.658 13.067-30.458 42.062-17.376 64.695 8.787 15.187 24.732 23.669 41.121 23.669l.049.049Z" fill="#FFB800"/>
    <path d="M545.816 190.721c16.389 0 32.333-8.481 41.12-23.669 13.082-22.633 5.332-51.627-17.327-64.695L403.102 6.351c-22.658-13.067-51.685-5.326-64.766 17.308-13.082 22.633-5.332 51.627 17.376 64.694L522.17 184.36c7.454 4.29 15.599 6.361 23.646 6.361Z" fill="#009E49"/>
</svg>
