<svg width="14" height="14" viewBox="0 0 14 14" fill="none" xmlns="http://www.w3.org/2000/svg">
<path d="M1.24807 9.63247C0.787555 9.89835 0.62977 10.4872 0.89565 10.9477C1.16153 11.4082 1.75039 11.566 2.21091 11.3002L1.24807 9.63247ZM13.7774 4.29659C13.915 3.78295 13.6102 3.25499 13.0966 3.11736L4.72632 0.874553C4.21268 0.736924 3.68472 1.04174 3.54709 1.55538C3.40946 2.06902 3.71427 2.59698 4.22792 2.73461L11.6682 4.72822L9.67455 12.1685C9.53692 12.6821 9.84174 13.2101 10.3554 13.3477C10.869 13.4853 11.397 13.1805 11.5346 12.6669L13.7774 4.29659ZM2.21091 11.3002L13.3288 4.88123L12.366 3.21355L1.24807 9.63247L2.21091 11.3002Z" fill="#F3F3F3"/>
</svg>
