<svg width="32" height="33" viewBox="0 0 32 33" fill="none" xmlns="http://www.w3.org/2000/svg">
<g clip-path="url(#clip0_57_3121)">
<path d="M21.2766 16.1271L14.6319 11.2969C14.388 11.1202 14.0643 11.0935 13.797 11.2309C13.5276 11.3672 13.3594 11.6441 13.3594 11.9433V21.6005C13.3594 21.9029 13.5276 22.1787 13.797 22.315C13.911 22.3725 14.0356 22.4012 14.1612 22.4012C14.3252 22.4012 14.4913 22.3491 14.6319 22.2458L21.2766 17.4198C21.4864 17.2654 21.6088 17.0269 21.6088 16.7735C21.6099 16.5158 21.4842 16.2783 21.2766 16.1271Z" fill="#00AAE9"/>
<path d="M16.0005 0.754883C7.16222 0.754883 0 7.91711 0 16.7554C0 25.5905 7.16222 32.7506 16.0005 32.7506C24.8367 32.7506 32 25.5895 32 16.7554C32.0011 7.91711 24.8367 0.754883 16.0005 0.754883ZM16.0005 30.081C8.64024 30.081 2.67279 24.1168 2.67279 16.7554C2.67279 9.39726 8.64024 3.42554 16.0005 3.42554C23.3598 3.42554 29.3261 9.39619 29.3261 16.7554C29.3272 24.1168 23.3598 30.081 16.0005 30.081Z" fill="#00AAE9"/>
</g>
<defs>
<clipPath id="clip0_57_3121">
<rect width="32" height="32" fill="white" transform="translate(0 0.752808)"/>
</clipPath>
</defs>
</svg>
