<svg width="14924" height="4477" viewBox="0 0 14924 4477" fill="none" xmlns="http://www.w3.org/2000/svg">
<path d="M90.3942 2744.56H285.702C355.243 2744.56 411.712 2810.2 411.712 2891.1V3703.24C411.712 4108.04 693.764 4436.23 1041.71 4436.23H1481.61C1509.5 4436.23 1532 4409.94 1532 4377.55V3555.17C1532 3522.78 1509.35 3496.55 1481.61 3496.55H1158.78C1089.24 3496.55 1032.77 3430.91 1032.77 3349.95V1126.22C1032.77 1045.26 1089.24 979.626 1158.78 979.626H1481.61C1509.5 979.626 1532 953.337 1532 920.999V98.6277C1532 66.2326 1509.35 40 1481.61 40H1041.71C693.764 40 411.712 368.134 411.712 772.931V1621.65C411.712 1702.61 355.243 1768.25 285.702 1768.25H90.3942C62.6458 1768.25 40 1794.53 40 1826.87V2685.94C40 2718.27 62.6458 2744.56 90.3942 2744.56Z" fill="#B8EDF8"/>
<path d="M90.3942 2744.56H285.702C355.243 2744.56 411.712 2810.2 411.712 2891.1V3703.24C411.712 4108.04 693.764 4436.23 1041.71 4436.23H1481.61C1509.5 4436.23 1532 4409.94 1532 4377.55V3555.17C1532 3522.78 1509.35 3496.55 1481.61 3496.55H1158.78C1089.24 3496.55 1032.77 3430.91 1032.77 3349.95V1126.22C1032.77 1045.26 1089.24 979.626 1158.78 979.626H1481.61C1509.5 979.626 1532 953.337 1532 920.998V98.6278C1532 66.2328 1509.35 39.9999 1481.61 39.9999H1041.71C693.764 39.9999 411.712 368.134 411.712 772.931V1621.65C411.712 1702.61 355.243 1768.25 285.702 1768.25H90.3942C62.6458 1768.25 40 1794.53 40 1826.87V2685.94C40 2718.27 62.6458 2744.56 90.3942 2744.56Z" stroke="#1E1E1E" stroke-width="80" stroke-miterlimit="10" stroke-linejoin="round"/>
<path d="M14833.6 2744.56H14638.3C14568.8 2744.56 14512.3 2810.2 14512.3 2891.1V3703.24C14512.3 4108.04 14230.2 4436.23 13882.3 4436.23H13442.4C13414.5 4436.23 13392 4409.94 13392 4377.55V3555.17C13392 3522.78 13414.6 3496.55 13442.4 3496.55H13765.2C13834.8 3496.55 13891.2 3430.91 13891.2 3349.95V1126.22C13891.2 1045.26 13834.8 979.626 13765.2 979.626H13442.4C13414.5 979.626 13392 953.337 13392 920.999V98.6277C13392 66.2326 13414.6 40 13442.4 40H13882.3C14230.2 40 14512.3 368.134 14512.3 772.931V1621.65C14512.3 1702.61 14568.8 1768.25 14638.3 1768.25H14833.6C14861.4 1768.25 14884 1794.53 14884 1826.87V2685.94C14884 2718.27 14861.4 2744.56 14833.6 2744.56Z" fill="#CCF6CF"/>
<path d="M14833.6 2744.56H14638.3C14568.8 2744.56 14512.3 2810.2 14512.3 2891.1V3703.24C14512.3 4108.04 14230.2 4436.23 13882.3 4436.23H13442.4C13414.5 4436.23 13392 4409.94 13392 4377.55V3555.17C13392 3522.78 13414.6 3496.55 13442.4 3496.55H13765.2C13834.8 3496.55 13891.2 3430.91 13891.2 3349.95V1126.22C13891.2 1045.26 13834.8 979.626 13765.2 979.626H13442.4C13414.5 979.626 13392 953.337 13392 920.998V98.6278C13392 66.2328 13414.6 39.9999 13442.4 39.9999H13882.3C14230.2 39.9999 14512.3 368.134 14512.3 772.931V1621.65C14512.3 1702.61 14568.8 1768.25 14638.3 1768.25H14833.6C14861.4 1768.25 14884 1794.53 14884 1826.87V2685.94C14884 2718.27 14861.4 2744.56 14833.6 2744.56Z" stroke="#1E1E1E" stroke-width="80" stroke-miterlimit="10" stroke-linejoin="round"/>
<path d="M2272.2 2392V888.4H2732.1C2961.7 888.4 3145.8 957.7 3284.4 1096.3C3424.4 1234.9 3494.4 1416.2 3494.4 1640.2C3494.4 1865.6 3424.4 2047.6 3284.4 2186.2C3145.8 2323.4 2961.7 2392 2732.1 2392H2272.2ZM2465.4 1073.2V2207.2H2732.1C2907.1 2207.2 3045 2157.5 3145.8 2058.1C3246.6 1957.3 3297 1818 3297 1640.2C3297 1463.8 3246.6 1325.2 3145.8 1224.4C3045 1123.6 2907.1 1073.2 2732.1 1073.2H2465.4ZM4121.79 2425.6C3970.59 2425.6 3845.99 2373.8 3747.99 2270.2C3649.99 2166.6 3600.99 2035.7 3600.99 1877.5C3600.99 1720.7 3648.59 1590.5 3743.79 1486.9C3838.99 1381.9 3960.79 1329.4 4109.19 1329.4C4261.79 1329.4 4382.89 1379.1 4472.49 1478.5C4563.49 1576.5 4608.99 1714.4 4608.99 1892.2L4606.89 1913.2H3798.39C3801.19 2014 3834.79 2095.2 3899.19 2156.8C3963.59 2218.4 4040.59 2249.2 4130.19 2249.2C4253.39 2249.2 4349.99 2187.6 4419.99 2064.4L4592.19 2148.4C4545.99 2235.2 4481.59 2303.1 4398.99 2352.1C4317.79 2401.1 4225.39 2425.6 4121.79 2425.6ZM3813.09 1753.6H4403.19C4397.59 1682.2 4368.19 1623.4 4314.99 1577.2C4263.19 1529.6 4193.19 1505.8 4104.99 1505.8C4032.19 1505.8 3969.19 1528.2 3915.99 1573C3864.19 1617.8 3829.89 1678 3813.09 1753.6ZM5264.96 2392H5071.76L4655.96 1363H4865.96L5168.36 2161H5172.56L5479.16 1363H5684.96L5264.96 2392ZM6037.86 1747.3V2392H5844.66V888.4H6722.46V1073.2H6037.86V1566.7H6655.26V1747.3H6037.86ZM7306.65 2425.6C7155.45 2425.6 7030.85 2373.8 6932.85 2270.2C6834.85 2166.6 6785.85 2035.7 6785.85 1877.5C6785.85 1720.7 6833.45 1590.5 6928.65 1486.9C7023.85 1381.9 7145.65 1329.4 7294.05 1329.4C7446.65 1329.4 7567.75 1379.1 7657.35 1478.5C7748.35 1576.5 7793.85 1714.4 7793.85 1892.2L7791.75 1913.2H6983.25C6986.05 2014 7019.65 2095.2 7084.05 2156.8C7148.45 2218.4 7225.45 2249.2 7315.05 2249.2C7438.25 2249.2 7534.85 2187.6 7604.85 2064.4L7777.05 2148.4C7730.85 2235.2 7666.45 2303.1 7583.85 2352.1C7502.65 2401.1 7410.25 2425.6 7306.65 2425.6ZM6997.95 1753.6H7588.05C7582.45 1682.2 7553.05 1623.4 7499.85 1577.2C7448.05 1529.6 7378.05 1505.8 7289.85 1505.8C7217.05 1505.8 7154.05 1528.2 7100.85 1573C7049.05 1617.8 7014.75 1678 6997.95 1753.6ZM8768.29 2106.4C8768.29 2196 8729.09 2271.6 8650.69 2333.2C8572.29 2394.8 8473.59 2425.6 8354.59 2425.6C8250.99 2425.6 8159.99 2399 8081.59 2345.8C8003.19 2291.2 7947.19 2219.8 7913.59 2131.6L8085.79 2058.1C8110.99 2119.7 8147.39 2168 8194.99 2203C8243.99 2236.6 8297.19 2253.4 8354.59 2253.4C8416.19 2253.4 8467.29 2240.1 8507.89 2213.5C8549.89 2186.9 8570.89 2155.4 8570.89 2119C8570.89 2053.2 8520.49 2004.9 8419.69 1974.1L8243.29 1930C8043.09 1879.6 7942.99 1783 7942.99 1640.2C7942.99 1546.4 7980.79 1471.5 8056.39 1415.5C8133.39 1358.1 8231.39 1329.4 8350.39 1329.4C8441.39 1329.4 8523.29 1351.1 8596.09 1394.5C8670.29 1437.9 8722.09 1496 8751.49 1568.8L8579.29 1640.2C8559.69 1596.8 8527.49 1563.2 8482.69 1539.4C8439.29 1514.2 8390.29 1501.6 8335.69 1501.6C8285.29 1501.6 8239.79 1514.2 8199.19 1539.4C8159.99 1564.6 8140.39 1595.4 8140.39 1631.8C8140.39 1690.6 8195.69 1732.6 8306.29 1757.8L8461.69 1797.7C8666.09 1848.1 8768.29 1951 8768.29 2106.4ZM9333.6 2408.8C9249.6 2408.8 9179.6 2382.9 9123.6 2331.1C9069 2279.3 9041 2207.2 9039.6 2114.8V1539.4H8859V1363H9039.6V1048H9232.8V1363H9484.8V1539.4H9232.8V2051.8C9232.8 2120.4 9246.1 2167.3 9272.7 2192.5C9299.3 2216.3 9329.4 2228.2 9363 2228.2C9378.4 2228.2 9393.1 2226.8 9407.1 2224C9422.5 2219.8 9436.5 2214.9 9449.1 2209.3L9510 2381.5C9459.6 2399.7 9400.8 2408.8 9333.6 2408.8Z" fill="white"/>
<path d="M4972.8 3958V3228.4H4732.8V3098.8H5348.4V3228.4H5108.4V3958H4972.8ZM5372.37 3370H5498.37V3458.8H5505.57C5512.77 3443.6 5522.37 3429.6 5534.37 3416.8C5547.17 3403.2 5561.17 3392 5576.37 3383.2C5592.37 3373.6 5608.77 3366.4 5625.57 3361.6C5643.17 3356 5659.97 3353.2 5675.97 3353.2C5695.17 3353.2 5711.57 3354.8 5725.17 3358C5738.77 3361.2 5751.17 3365.6 5762.37 3371.2L5723.97 3494.8C5715.17 3490.8 5705.17 3488 5693.97 3486.4C5683.57 3484 5670.77 3482.8 5655.57 3482.8C5633.97 3482.8 5613.97 3487.2 5595.57 3496C5577.97 3504.8 5562.37 3516.8 5548.77 3532C5535.17 3547.2 5524.37 3565.2 5516.37 3586C5509.17 3606.8 5505.57 3628.8 5505.57 3652V3958H5372.37V3370ZM5910.89 3265.6C5885.29 3265.6 5863.69 3256.8 5846.09 3239.2C5829.29 3221.6 5820.89 3200.4 5820.89 3175.6C5820.89 3150.8 5829.29 3129.6 5846.09 3112C5863.69 3094.4 5885.29 3085.6 5910.89 3085.6C5935.69 3085.6 5956.49 3094.4 5973.29 3112C5990.89 3129.6 5999.69 3150.8 5999.69 3175.6C5999.69 3200.4 5990.89 3221.6 5973.29 3239.2C5956.49 3256.8 5935.69 3265.6 5910.89 3265.6ZM5843.69 3958V3370H5976.89V3958H5843.69ZM6487.34 3886H6480.14C6462.54 3909.2 6439.74 3930.4 6411.74 3949.6C6383.74 3968 6348.14 3977.2 6304.94 3977.2C6273.74 3977.2 6244.54 3972 6217.34 3961.6C6190.14 3952 6166.54 3938.4 6146.54 3920.8C6126.54 3902.4 6110.54 3881.2 6098.54 3857.2C6087.34 3832.4 6081.74 3805.2 6081.74 3775.6C6081.74 3744.4 6087.74 3716.4 6099.74 3691.6C6112.54 3666.8 6129.74 3646 6151.34 3629.2C6173.74 3612.4 6200.14 3599.6 6230.54 3590.8C6260.94 3581.2 6293.74 3576.4 6328.94 3576.4C6368.14 3576.4 6400.94 3580.4 6427.34 3588.4C6453.74 3595.6 6473.74 3602.4 6487.34 3608.8V3586C6487.34 3568.4 6483.34 3552 6475.34 3536.8C6468.14 3521.6 6457.74 3508.8 6444.14 3498.4C6431.34 3487.2 6416.54 3478.8 6399.74 3473.2C6382.94 3466.8 6365.34 3463.6 6346.94 3463.6C6317.34 3463.6 6290.54 3469.6 6266.54 3481.6C6243.34 3492.8 6222.54 3511.2 6204.14 3536.8L6098.54 3467.2C6126.54 3428.8 6161.34 3400 6202.94 3380.8C6244.54 3360.8 6291.74 3350.8 6344.54 3350.8C6431.74 3350.8 6498.94 3372.4 6546.14 3415.6C6594.14 3458.8 6618.14 3520.4 6618.14 3600.4V3958H6487.34V3886ZM6487.34 3713.2C6469.74 3702.8 6450.14 3694.4 6428.54 3688C6406.94 3681.6 6382.14 3678.4 6354.14 3678.4C6312.54 3678.4 6279.34 3688 6254.54 3707.2C6229.74 3726.4 6217.34 3749.6 6217.34 3776.8C6217.34 3791.2 6220.54 3804 6226.94 3815.2C6233.34 3825.6 6241.34 3834.8 6250.94 3842.8C6261.34 3850.8 6272.94 3856.8 6285.74 3860.8C6299.34 3864.8 6312.94 3866.8 6326.54 3866.8C6348.14 3866.8 6368.54 3862.8 6387.74 3854.8C6407.74 3846 6424.94 3834.8 6439.34 3821.2C6453.74 3806.8 6465.34 3790.4 6474.14 3772C6482.94 3753.6 6487.34 3734 6487.34 3713.2ZM6164.54 3244L6294.14 3098.8H6411.74L6541.34 3244V3252.4H6412.94L6358.94 3181.6H6346.94L6292.94 3252.4H6164.54V3244ZM6869.47 3449.2H6876.67C6894.27 3421.2 6919.07 3398 6951.07 3379.6C6983.87 3360.4 7020.67 3350.8 7061.47 3350.8C7135.87 3350.8 7191.47 3373.2 7228.27 3418C7265.07 3462 7283.47 3520.8 7283.47 3594.4V3958H7150.27V3612.4C7150.27 3561.2 7138.27 3525.6 7114.27 3505.6C7091.07 3484.8 7060.27 3474.4 7021.87 3474.4C6998.67 3474.4 6978.27 3479.2 6960.67 3488.8C6943.07 3498.4 6927.87 3511.6 6915.07 3528.4C6902.27 3544.4 6892.67 3563.2 6886.27 3584.8C6879.87 3605.6 6876.67 3627.6 6876.67 3650.8V3958H6743.47V3370H6869.47V3449.2ZM7673.15 4236.4C7632.35 4236.4 7595.95 4230.8 7563.95 4219.6C7532.75 4209.2 7505.55 4195.6 7482.35 4178.8C7459.15 4162 7439.95 4143.2 7424.75 4122.4C7410.35 4101.6 7399.55 4081.6 7392.35 4062.4L7519.55 4010.8C7530.75 4042 7549.95 4067.2 7577.15 4086.4C7604.35 4106.4 7636.35 4116.4 7673.15 4116.4C7728.35 4116.4 7771.15 4099.6 7801.55 4066C7832.75 4032.4 7848.35 3986 7848.35 3926.8V3878.8H7841.15C7822.75 3905.2 7797.15 3927.2 7764.35 3944.8C7732.35 3962.4 7694.75 3971.2 7651.55 3971.2C7615.55 3971.2 7580.75 3963.6 7547.15 3948.4C7513.55 3933.2 7483.55 3912 7457.15 3884.8C7431.55 3857.6 7411.15 3824.8 7395.95 3786.4C7380.75 3748 7373.15 3706 7373.15 3660.4C7373.15 3614.8 7380.75 3573.2 7395.95 3535.6C7411.15 3497.2 7431.55 3464.4 7457.15 3437.2C7483.55 3410 7513.55 3388.8 7547.15 3373.6C7580.75 3358.4 7615.55 3350.8 7651.55 3350.8C7694.75 3350.8 7732.35 3359.6 7764.35 3377.2C7797.15 3394.8 7822.75 3416.8 7841.15 3443.2H7848.35V3370H7976.75V3924.4C7976.75 3974.8 7968.75 4019.2 7952.75 4057.6C7937.55 4096.8 7916.35 4129.6 7889.15 4156C7862.75 4182.4 7830.75 4202.4 7793.15 4216C7756.35 4229.6 7716.35 4236.4 7673.15 4236.4ZM7677.95 3847.6C7699.55 3847.6 7720.75 3843.6 7741.55 3835.6C7762.35 3827.6 7780.35 3815.6 7795.55 3799.6C7811.55 3783.6 7824.35 3764 7833.95 3740.8C7843.55 3717.6 7848.35 3690.8 7848.35 3660.4C7848.35 3630.8 7843.55 3604.4 7833.95 3581.2C7824.35 3557.2 7811.55 3537.6 7795.55 3522.4C7780.35 3506.4 7762.35 3494.4 7741.55 3486.4C7720.75 3477.6 7699.55 3473.2 7677.95 3473.2C7655.55 3473.2 7633.95 3477.6 7613.15 3486.4C7593.15 3494.4 7575.15 3506.4 7559.15 3522.4C7543.15 3538.4 7530.35 3558 7520.75 3581.2C7511.15 3604.4 7506.35 3630.8 7506.35 3660.4C7506.35 3690 7511.15 3716.4 7520.75 3739.6C7530.35 3762.8 7543.15 3782.4 7559.15 3798.4C7575.15 3814.4 7593.15 3826.8 7613.15 3835.6C7633.95 3843.6 7655.55 3847.6 7677.95 3847.6ZM8514.38 3878.8H8507.18C8489.58 3906.8 8464.38 3930.4 8431.58 3949.6C8399.58 3968 8363.18 3977.2 8322.38 3977.2C8247.98 3977.2 8192.38 3955.2 8155.58 3911.2C8118.78 3866.4 8100.38 3807.2 8100.38 3733.6V3370H8233.58V3715.6C8233.58 3766.8 8245.18 3802.8 8268.38 3823.6C8292.38 3843.6 8323.58 3853.6 8361.98 3853.6C8384.38 3853.6 8404.38 3848.8 8421.98 3839.2C8440.38 3829.6 8455.98 3816.8 8468.78 3800.8C8481.58 3784 8491.18 3765.2 8497.58 3744.4C8503.98 3722.8 8507.18 3700.4 8507.18 3677.2V3370H8640.38V3958H8514.38V3878.8ZM8774.33 3958V3098.8H8907.53V3958H8774.33ZM9309.25 3350.8C9354.05 3350.8 9395.25 3358.8 9432.85 3374.8C9470.45 3390 9502.85 3411.6 9530.05 3439.6C9557.25 3467.6 9578.45 3500.8 9593.65 3539.2C9608.85 3577.6 9616.45 3619.2 9616.45 3664C9616.45 3708.8 9608.85 3750.4 9593.65 3788.8C9578.45 3827.2 9557.25 3860.4 9530.05 3888.4C9502.85 3916.4 9470.45 3938.4 9432.85 3954.4C9395.25 3969.6 9354.05 3977.2 9309.25 3977.2C9264.45 3977.2 9223.25 3969.6 9185.65 3954.4C9148.05 3938.4 9115.65 3916.4 9088.45 3888.4C9061.25 3860.4 9040.05 3827.2 9024.85 3788.8C9009.65 3750.4 9002.05 3708.8 9002.05 3664C9002.05 3619.2 9009.65 3577.6 9024.85 3539.2C9040.05 3500.8 9061.25 3467.6 9088.45 3439.6C9115.65 3411.6 9148.05 3390 9185.65 3374.8C9223.25 3358.8 9264.45 3350.8 9309.25 3350.8ZM9309.25 3853.6C9331.65 3853.6 9353.25 3849.2 9374.05 3840.4C9394.85 3831.6 9413.25 3819.2 9429.25 3803.2C9446.05 3787.2 9459.25 3767.6 9468.85 3744.4C9478.45 3720.4 9483.25 3693.6 9483.25 3664C9483.25 3634.4 9478.45 3608 9468.85 3584.8C9459.25 3560.8 9446.05 3540.8 9429.25 3524.8C9413.25 3508.8 9394.85 3496.4 9374.05 3487.6C9353.25 3478.8 9331.65 3474.4 9309.25 3474.4C9286.85 3474.4 9265.25 3478.8 9244.45 3487.6C9223.65 3496.4 9204.85 3508.8 9188.05 3524.8C9172.05 3540.8 9159.25 3560.8 9149.65 3584.8C9140.05 3608 9135.25 3634.4 9135.25 3664C9135.25 3693.6 9140.05 3720.4 9149.65 3744.4C9159.25 3767.6 9172.05 3787.2 9188.05 3803.2C9204.85 3819.2 9223.65 3831.6 9244.45 3840.4C9265.25 3849.2 9286.85 3853.6 9309.25 3853.6ZM9965.76 3958V3832C10012.2 3786.4 10055 3743.6 10094.2 3703.6C10111 3686.8 10127.8 3669.6 10144.6 3652C10162.2 3634.4 10178.6 3618 10193.8 3602.8C10209 3586.8 10223 3572.4 10235.8 3559.6C10248.6 3546 10258.6 3535.2 10265.8 3527.2C10281 3509.6 10294.2 3494 10305.4 3480.4C10316.6 3466.8 10325.8 3453.6 10333 3440.8C10340.2 3428 10345.4 3415.2 10348.6 3402.4C10352.6 3389.6 10354.6 3375.2 10354.6 3359.2C10354.6 3344.8 10351.4 3330.8 10345 3317.2C10339.4 3303.6 10331 3291.6 10319.8 3281.2C10308.6 3270 10294.6 3261.2 10277.8 3254.8C10261.8 3247.6 10243 3244 10221.4 3244C10200.6 3244 10182.2 3247.6 10166.2 3254.8C10151 3261.2 10137.8 3270 10126.6 3281.2C10115.4 3291.6 10106.2 3303.2 10099 3316C10091.8 3328 10086.6 3340 10083.4 3352L9962.16 3302.8C9967.76 3283.6 9977.36 3263.2 9990.96 3241.6C10004.6 3220 10022.2 3200 10043.8 3181.6C10065.4 3163.2 10091 3148 10120.6 3136C10151 3124 10185.4 3118 10223.8 3118C10264.6 3118 10301.4 3124.4 10334.2 3137.2C10367 3150 10395 3167.2 10418.2 3188.8C10441.4 3210.4 10459 3235.6 10471 3264.4C10483.8 3293.2 10490.2 3324 10490.2 3356.8C10490.2 3382.4 10486.2 3407.2 10478.2 3431.2C10471 3455.2 10461 3478.4 10448.2 3500.8C10436.2 3522.4 10422.2 3542.8 10406.2 3562C10391 3581.2 10375.4 3598.8 10359.4 3614.8C10355.4 3618.8 10349.4 3624.8 10341.4 3632.8C10333.4 3640.8 10323.8 3650.4 10312.6 3661.6C10302.2 3672 10290.6 3683.2 10277.8 3695.2C10265 3708 10252.2 3720.8 10239.4 3733.6L10142.2 3830.8L10143.4 3835.6H10499.8V3958H9965.76ZM10942.8 3977.2C10890.8 3977.2 10844 3966.4 10802.4 3944.8C10761.6 3922.4 10726.4 3892 10696.8 3853.6C10667.2 3814.4 10644.4 3768.8 10628.4 3716.8C10613.2 3664 10605.6 3607.6 10605.6 3547.6C10605.6 3487.6 10613.2 3431.6 10628.4 3379.6C10644.4 3326.8 10667.2 3281.2 10696.8 3242.8C10726.4 3203.6 10761.6 3173.2 10802.4 3151.6C10844 3129.2 10890.8 3118 10942.8 3118C10994 3118 11040.4 3129.2 11082 3151.6C11123.6 3173.2 11158.8 3203.6 11187.6 3242.8C11217.2 3281.2 11240 3326.8 11256 3379.6C11272 3431.6 11280 3487.6 11280 3547.6C11280 3607.6 11272 3664 11256 3716.8C11240 3768.8 11217.2 3814.4 11187.6 3853.6C11158.8 3892 11123.6 3922.4 11082 3944.8C11040.4 3966.4 10994 3977.2 10942.8 3977.2ZM10942.8 3851.2C10974 3851.2 11002 3843.6 11026.8 3828.4C11052.4 3812.4 11073.6 3790.8 11090.4 3763.6C11108 3736.4 11121.2 3704.4 11130 3667.6C11139.6 3630 11144.4 3590 11144.4 3547.6C11144.4 3504.4 11139.6 3464.4 11130 3427.6C11121.2 3390.8 11108 3358.8 11090.4 3331.6C11073.6 3304.4 11052.4 3283.2 11026.8 3268C11002 3252 10974 3244 10942.8 3244C10911.6 3244 10883.2 3252 10857.6 3268C10832.8 3283.2 10811.6 3304.4 10794 3331.6C10777.2 3358.8 10764 3390.8 10754.4 3427.6C10745.6 3464.4 10741.2 3504.4 10741.2 3547.6C10741.2 3590 10745.6 3630 10754.4 3667.6C10764 3704.4 10777.2 3736.4 10794 3763.6C10811.6 3790.8 10832.8 3812.4 10857.6 3828.4C10883.2 3843.6 10911.6 3851.2 10942.8 3851.2ZM11373.2 3958V3832C11419.6 3786.4 11462.4 3743.6 11501.6 3703.6C11518.4 3686.8 11535.2 3669.6 11552 3652C11569.6 3634.4 11586 3618 11601.2 3602.8C11616.4 3586.8 11630.4 3572.4 11643.2 3559.6C11656 3546 11666 3535.2 11673.2 3527.2C11688.4 3509.6 11701.6 3494 11712.8 3480.4C11724 3466.8 11733.2 3453.6 11740.4 3440.8C11747.6 3428 11752.8 3415.2 11756 3402.4C11760 3389.6 11762 3375.2 11762 3359.2C11762 3344.8 11758.8 3330.8 11752.4 3317.2C11746.8 3303.6 11738.4 3291.6 11727.2 3281.2C11716 3270 11702 3261.2 11685.2 3254.8C11669.2 3247.6 11650.4 3244 11628.8 3244C11608 3244 11589.6 3247.6 11573.6 3254.8C11558.4 3261.2 11545.2 3270 11534 3281.2C11522.8 3291.6 11513.6 3303.2 11506.4 3316C11499.2 3328 11494 3340 11490.8 3352L11369.6 3302.8C11375.2 3283.6 11384.8 3263.2 11398.4 3241.6C11412 3220 11429.6 3200 11451.2 3181.6C11472.8 3163.2 11498.4 3148 11528 3136C11558.4 3124 11592.8 3118 11631.2 3118C11672 3118 11708.8 3124.4 11741.6 3137.2C11774.4 3150 11802.4 3167.2 11825.6 3188.8C11848.8 3210.4 11866.4 3235.6 11878.4 3264.4C11891.2 3293.2 11897.6 3324 11897.6 3356.8C11897.6 3382.4 11893.6 3407.2 11885.6 3431.2C11878.4 3455.2 11868.4 3478.4 11855.6 3500.8C11843.6 3522.4 11829.6 3542.8 11813.6 3562C11798.4 3581.2 11782.8 3598.8 11766.8 3614.8C11762.8 3618.8 11756.8 3624.8 11748.8 3632.8C11740.8 3640.8 11731.2 3650.4 11720 3661.6C11709.6 3672 11698 3683.2 11685.2 3695.2C11672.4 3708 11659.6 3720.8 11646.8 3733.6L11549.6 3830.8L11550.8 3835.6H11907.2V3958H11373.2ZM12392.3 3958V3796H12008.3V3690.4L12381.5 3137.2H12526.7V3671.2H12629.9V3796H12526.7V3958H12392.3ZM12392.3 3335.2H12385.1L12158.3 3671.2H12392.3V3335.2Z" fill="white"/>
<path fill-rule="evenodd" clip-rule="evenodd" d="M11829.3 609.37C11613.3 541.954 11394.1 515.844 11110.1 517.301C11101.9 517.343 11093.8 520.285 11087.4 525.566L10079.1 1356.42L12428.8 890.295C12202.9 757.685 12016.3 667.748 11829.3 609.37ZM12515.4 974.304L9945.1 1484.18V1627.55C9945.1 1642.64 9956.49 1661.56 9981.18 1673.24C10073.3 1716.83 10129 1795.37 10129.4 1882.27C10129.8 1969.61 10074.3 2049.96 9976.36 2097.21C9953.82 2108.09 9943.2 2126.05 9943.2 2140.78V2542.61C9943.2 2565.58 9964.08 2582.9 9986.65 2578.65L10775.9 2430.02C10791.8 2427.03 10810.4 2409.32 10819.1 2375.31C10869.1 2179.74 11124.4 2126.5 11245 2295.67C11265.1 2323.86 11289 2333.26 11304.9 2330L12491.1 2086.57C12508.2 2083.05 12520.5 2067.95 12520.4 2050.47L12515.4 974.304ZM11858.8 514.63C12086.7 585.774 12310.8 700.489 12590.5 871.595L12614.1 886.028L12619.6 2050C12619.9 2114.78 12574.5 2170.77 12511.1 2183.79L11324.8 2427.22C11254.1 2441.74 11195.4 2397.12 11164.2 2353.27C11093.9 2254.58 10944.8 2284.09 10915.2 2399.88C10902.1 2451.18 10864.9 2514.25 10794.3 2527.55L10005 2676.18C9921.36 2691.93 9844 2627.75 9844 2542.61V2140.78C9844 2078.19 9886.19 2030.55 9933.25 2007.83C10004.8 1973.29 10030.4 1923.54 10030.2 1882.68C10030 1841.38 10003.6 1793.61 9938.78 1762.96C9891.15 1740.43 9845.9 1692.51 9845.9 1627.55V1420.02L11024.3 448.964C11048.2 429.23 11078.4 418.219 11109.6 418.059C11400.5 416.567 11630.3 443.315 11858.8 514.63Z" fill="url(#paint0_linear_2514_3)"/>
<path fill-rule="evenodd" clip-rule="evenodd" d="M12194.7 1703.62C12279.1 1703.62 12350.8 1631.42 12350.8 1538.14C12350.8 1444.86 12279.1 1372.65 12194.7 1372.65C12110.4 1372.65 12038.7 1444.86 12038.7 1538.14C12038.7 1631.42 12110.4 1703.62 12194.7 1703.62ZM12194.7 1746.77C12304.7 1746.77 12393.9 1653.36 12393.9 1538.14C12393.9 1422.91 12304.7 1329.5 12194.7 1329.5C12084.7 1329.5 11995.5 1422.91 11995.5 1538.14C11995.5 1653.36 12084.7 1746.77 12194.7 1746.77Z" fill="#4285F4"/>
<path fill-rule="evenodd" clip-rule="evenodd" d="M10860.9 1703.62C10939 1703.62 10999.9 1642.7 10999.9 1570.54C10999.9 1498.39 10939 1437.47 10860.9 1437.47C10782.8 1437.47 10721.9 1498.39 10721.9 1570.54C10721.9 1642.7 10782.8 1703.62 10860.9 1703.62ZM10860.9 1746.77C10961.5 1746.77 11043 1667.87 11043 1570.54C11043 1473.22 10961.5 1394.32 10860.9 1394.32C10760.3 1394.32 10678.8 1473.22 10678.8 1570.54C10678.8 1667.87 10760.3 1746.77 10860.9 1746.77Z" fill="#EA4335"/>
<path fill-rule="evenodd" clip-rule="evenodd" d="M11673.2 1931.36C11725.3 1931.36 11770.4 1886.88 11770.4 1828.37C11770.4 1769.86 11725.3 1725.39 11673.2 1725.39C11621.1 1725.39 11575.9 1769.86 11575.9 1828.37C11575.9 1886.88 11621.1 1931.36 11673.2 1931.36ZM11673.2 1974.51C11750.7 1974.51 11813.6 1909.08 11813.6 1828.37C11813.6 1747.66 11750.7 1682.24 11673.2 1682.24C11595.7 1682.24 11532.8 1747.66 11532.8 1828.37C11532.8 1909.08 11595.7 1974.51 11673.2 1974.51Z" fill="#4285F4"/>
<path fill-rule="evenodd" clip-rule="evenodd" d="M10428.5 2333.71C10466.3 2333.71 10499.2 2301.7 10499.2 2259.2C10499.2 2216.7 10466.3 2184.68 10428.5 2184.68C10390.8 2184.68 10357.8 2216.7 10357.8 2259.2C10357.8 2301.7 10390.8 2333.71 10428.5 2333.71ZM10428.5 2376.86C10491.4 2376.86 10542.4 2324.18 10542.4 2259.2C10542.4 2194.21 10491.4 2141.53 10428.5 2141.53C10365.7 2141.53 10314.7 2194.21 10314.7 2259.2C10314.7 2324.18 10365.7 2376.86 10428.5 2376.86Z" fill="#FBBC04"/>
<path fill-rule="evenodd" clip-rule="evenodd" d="M11693.4 912.56C11655.4 936.9 11604.4 951.108 11549.5 951.108C11494.6 951.108 11443.6 936.9 11405.6 912.56C11367.9 888.404 11339.9 851.893 11339.9 807.552C11339.9 763.21 11367.9 726.699 11405.6 702.544C11443.6 678.203 11494.6 663.995 11549.5 663.995C11604.4 663.995 11655.4 678.203 11693.4 702.544C11731.1 726.699 11759.1 763.21 11759.1 807.552C11759.1 851.893 11731.1 888.404 11693.4 912.56ZM11549.5 925.218C11651 925.218 11733.3 872.537 11733.3 807.552C11733.3 742.566 11651 689.885 11549.5 689.885C11448 689.885 11365.8 742.566 11365.8 807.552C11365.8 872.537 11448 925.218 11549.5 925.218Z" fill="#34A853"/>
<path fill-rule="evenodd" clip-rule="evenodd" d="M10954.8 1060.72C10929.7 1078.95 10896.4 1089.43 10860.8 1089.43C10825.1 1089.43 10791.8 1078.95 10766.8 1060.72C10741.7 1042.5 10723.5 1015.14 10723.5 982.428C10723.5 949.713 10741.7 922.353 10766.8 904.138C10791.8 885.906 10825.1 875.423 10860.8 875.423C10896.4 875.423 10929.7 885.906 10954.8 904.138C10979.8 922.353 10998.1 949.713 10998.1 982.428C10998.1 1015.14 10979.8 1042.5 10954.8 1060.72ZM10860.8 1063.54C10922.3 1063.54 10972.2 1027.23 10972.2 982.428C10972.2 937.63 10922.3 901.313 10860.8 901.313C10799.2 901.313 10749.4 937.63 10749.4 982.428C10749.4 1027.23 10799.2 1063.54 10860.8 1063.54Z" fill="#FBBC04"/>
<defs>
<linearGradient id="paint0_linear_2514_3" x1="12572.3" y1="1556.99" x2="9834.7" y2="2129.68" gradientUnits="userSpaceOnUse">
<stop offset="0.0134064" stop-color="#4285F4"/>
<stop offset="0.260622" stop-color="#34A853"/>
<stop offset="0.439673" stop-color="#EA4335"/>
<stop offset="1" stop-color="#FBBC04"/>
</linearGradient>
</defs>
</svg>
